<svg width="601" height="282" viewBox="0 0 601 282" fill="none" xmlns="http://www.w3.org/2000/svg">
<rect width="601" height="282" fill="white"/>
<path d="M344 55L184 20L245.5 199.5L344 55Z" fill="#EBF000"/>
<circle cx="98" cy="143.5" r="64" fill="#BA5BF3"/>
<rect x="371.987" y="64.6235" width="158.025" height="201.523" transform="rotate(-11.6889 371.987 64.6235)" fill="#95DE1D"/>
<path d="M127.969 221.078C143.105 221.078 155.02 213.363 160.684 201.742H161.074V219.418H184.902V78.5H160.586V133.285H160C154.531 121.859 142.812 114.145 127.969 114.145C101.895 114.145 85 134.848 85 167.562C85 200.473 101.895 221.078 127.969 221.078ZM135.293 134.164C150.625 134.164 160.684 147.348 160.684 167.66C160.684 188.168 150.625 201.156 135.293 201.156C119.57 201.156 109.902 188.266 109.902 167.66C109.902 147.152 119.668 134.164 135.293 134.164Z" fill="black"/>
<path d="M230.605 159.066H230.312V78.5H205.996V219.418H230.312V183.48L238.516 175.18L271.23 219.418H299.355L256.191 160.434L297.598 115.902H269.57L230.605 159.066Z" fill="black"/>
<path d="M372.891 78.5V249.594H432.695V227.43H396.328V99.6641H432.695V78.5H372.891Z" fill="black"/>
<path d="M547.266 249.594V78.5H487.363V99.6641H523.828V227.43H487.363V249.594H547.266Z" fill="black"/>
<path d="M348.027 159.066H320V130.941H348.027V159.066Z" fill="black"/>
<path d="M348.027 203.984H320V175.859H348.027V203.984Z" fill="black"/>
</svg>
