<svg width="400" height="400" viewBox="0 0 400 400" fill="none" xmlns="http://www.w3.org/2000/svg">
<rect width="400" height="400" fill="white"/>
<path d="M77 85.798C77 143.581 74.8078 167.332 77.0001 219.5C78.305 250.552 82.3277 298.906 82.3277 298.906" stroke="black" stroke-width="25" stroke-linecap="round" stroke-linejoin="round"/>
<path d="M77 85.798C114.557 85.798 189.671 85.798 189.671 85.798C189.671 85.798 246 87.4711 268.403 110.661C289.008 131.99 290.826 153.243 291.884 182.881C292.491 199.874 292.114 210.024 286.556 226.094C279.535 246.397 264.338 262.8 255.5 271.5C225.953 300.585 188.744 304.234 146 304.234C125.838 304.234 108.064 304.234 87.6554 304.234" stroke="black" stroke-width="25" stroke-linecap="round" stroke-linejoin="round"/>
<path d="M132 43.5C132 146.5 141 236.5 141 236.5C141 236.5 144.92 282.5 144.92 315.5C144.92 329.456 143.5 347.5 147 365.5" stroke="black" stroke-width="25" stroke-linecap="round" stroke-linejoin="round"/>
<path d="M146.504 195C189.49 151.791 234.646 108.944 283.492 72.8484C286.845 70.3708 320.619 43.265 323.504 46.2257" stroke="black" stroke-width="25" stroke-linecap="round" stroke-linejoin="round"/>
<path d="M185.504 162C198.325 183.69 213.889 202.742 228.407 223.102C247.807 250.309 265.833 278.638 284.286 306.598C285.995 309.188 320.621 359.719 323.504 353.464" stroke="black" stroke-width="25" stroke-linecap="round" stroke-linejoin="round"/>
</svg>
