<svg height='300px' width='300px'  fill="#000000" xmlns="http://www.w3.org/2000/svg" xmlns:xlink="http://www.w3.org/1999/xlink" version="1.1" x="0px" y="0px" viewBox="0 0 100 100" style="enable-background:new 0 0 100 100;" xml:space="preserve"><circle cx="25.2" cy="54.5" r="11"></circle><rect x="38.5" y="18.5" width="22" height="22"></rect><polygon points="64.8,66.5 75.8,47.4 86.8,66.5 "></polygon><polygon points="25.3,34 19.2,27.9 20.8,26.3 25.3,30.8 29.7,26.3 31.4,28 "></polygon><rect x="24.5" y="18.5" width="2" height="14"></rect><polygon points="74.3,33 69,27.7 70.4,26.3 74.3,30.2 78.1,26.3 79.6,27.7 "></polygon><rect x="73.5" y="18.5" width="2" height="13"></rect><polygon points="50.3,66.9 45,61.6 46.4,60.2 50.3,64.1 54.1,60.2 55.6,61.7 "></polygon><rect x="49.5" y="52.5" width="2" height="13"></rect><polygon points="90.5,83.5 8.5,83.5 8.5,73.5 10.5,73.5 10.5,81.5 88.5,81.5 88.5,73.5 90.5,73.5 "></polygon></svg>